<?xml version="1.0" encoding="utf-8"?>
<!-- Generator: Adobe Illustrator 24.0.1, SVG Export Plug-In . SVG Version: 6.00 Build 0)  -->
<svg version="1.1" id="Capa_1" xmlns="http://www.w3.org/2000/svg" xmlns:xlink="http://www.w3.org/1999/xlink" x="0px" y="0px"
	 viewBox="0 0 512 512" style="enable-background:new 0 0 512 512;" xml:space="preserve">
<style type="text/css">
	.st0{opacity:0.5;}
</style>
<g class="st0">
	<g>
		<path d="M496.9,482h-15v-91h-90v91h-60v-61h15c8.3,0,15-6.7,15-15v-30c0-24.8-20.2-45-45-45h-15v-30h15c8.3,0,15-6.7,15-15v-60
			c0-24.8-20.2-45-45-45H75c-24.8,0-45,20.2-45,45v60c0,8.3,6.7,15,15,15h15v30H45c-24.8,0-45,20.2-45,45v30c0,8.3,6.7,15,15,15h15
			v61H15c-8.3,0-15,6.7-15,15s6.7,15,15,15c166.8,0,286.6,0,481.9,0c8.3,0,15-6.7,15-15S505.2,482,496.9,482z M90,301h182v30H90V301
			z M301.9,482H60v-61h242L301.9,482L301.9,482z"/>
	</g>
</g>
<g class="st0">
	<g>
		<path d="M510.3,68.3l-30-60c-2.5-5.1-7.7-8.3-13.4-8.3h-60c-5.7,0-10.9,3.2-13.4,8.3l-30,60c-4.7,9.5,0.6,21.7,15.7,21.7l8.7,53.4
			c3,18.2,16.7,31.6,34,35.7v124.6c-17.4,6.2-30,22.7-30,42.2v15h90v-15c0-19.5-12.6-36-30-42.2V179.2c17.2-4.1,30.9-17.6,34-35.7
			l8.7-53.4C510.1,90,514.9,77.6,510.3,68.3z M456.3,138.5c-1.2,7.2-7.4,12.5-14.8,12.5h-9.2c-7.4,0-13.6-5.3-14.8-12.5L409.6,90
			h54.6L456.3,138.5z"/>
	</g>
</g>
</svg>
