<?xml version="1.0" encoding="utf-8"?>
<!-- Generator: Adobe Illustrator 24.0.1, SVG Export Plug-In . SVG Version: 6.00 Build 0)  -->
<svg version="1.1" id="Capa_1" xmlns="http://www.w3.org/2000/svg" xmlns:xlink="http://www.w3.org/1999/xlink" x="0px" y="0px"
	 viewBox="0 0 19.7 19.7" style="enable-background:new 0 0 19.7 19.7;" xml:space="preserve">
<style type="text/css">
	.st0{opacity:0.5;}
	.st1{fill:#030104;}
</style>
<g class="st0">
	<path class="st1" d="M12.3,18.5c1.1-0.5,1.9-1.9,1.7-3c-0.2-1.8-1.1-1.7-1.1-3.1c0-1.3,1.4-3.4,1.8-3.7c0.3-0.3,0.3-0.3-0.1-0.5
		c-0.4-0.2-1,0.1-1,0.1l-0.4,0.2c0,0-0.1-0.3-0.1-0.8c-0.1-0.5-0.8-1.5-0.8-1.5s1.1,0.1,1.3-0.3c0.2-0.4-0.1-0.6-0.1-0.6V4.9L13.2,5
		l-0.3,0l-0.1-0.2c0,0-0.2,0.2-0.4,0.2c-0.2,0-0.9-0.1-1-0.3c-0.3-0.6-0.1-0.7,0.4-1c0.8-0.3,1.4,0.3,1.4,0.3l0.1,0.2
		c0,0,0.1-0.1,0.3-0.1c0.2,0,0.3,0,0.3,0s0.1,0,0.3-0.4c0.1-0.3,0.1-0.5,0.1-0.7s0-0.2,0.1-0.4c0.1-0.2-0.1-0.5-0.4-0.6
		c-0.3-0.2-1.1-0.2-1.1-0.2s0.1-0.1,0-0.3c-0.1-0.2-0.2-0.3-0.7-0.5c-0.4-0.2-0.5-0.7-1.4-1.1c-1-0.4-2.9,0.4-2.9,0.4
		S7.7,0.4,7.4,0.4c-0.2,0-0.7-0.1-0.7,0C6.7,0.4,6.9,1,6.9,1S6.6,1.2,6.3,1.5c-0.3,0.4-0.6,1.2-0.6,2c0,0.9-0.3,1.5-0.4,1.7
		C5.3,5.4,6.1,5.1,6.1,5.1s-0.1,0.3-0.2,1c-0.2,0.7-0.6,2-0.7,2.3C5.1,8.6,6,8.2,6,8.2S5.9,8.7,5.7,9.5c-0.2,0.8-0.8,1.5-0.9,1.8
		c-0.1,0.3,1,0.4,1,0.4s-1.3,1.8-0.7,3.8c0.8,2.4,2.3,3,2.3,3H5.6v1.2h9.1v-1.2L12.3,18.5C12.3,18.5,12.3,18.5,12.3,18.5z M14.1,2.4
		c0.1,0.1,0.1,0.3,0,0.5c0,0.1-0.4-0.5-0.4-0.5C13.9,2.2,14,2.3,14.1,2.4z M11.2,2c0,0,0.2-0.1,0.6-0.1c0.4,0.1,0.3,0.2,0.3,0.2
		s-0.2,0-0.4,0.1c-0.3,0-0.6-0.1-0.6-0.1L11.2,2z M8.9,1.2c0,0-0.9,2.5,0.1,4.9c0.8,2,2.4,4.1,2.4,4.1S8.9,9.6,7.9,6.5
		C7.1,4,8.9,1.2,8.9,1.2z M11.3,16.2c0,0-0.1-0.2-0.1-0.1c0,0.1-0.1,0.1-0.2,0.1c-0.6,0.4-1.2-1.7-0.3-2.1c0,0,1.2,0,1.5,0.8
		C12.4,15.6,11.3,16.2,11.3,16.2z M12.1,10c0,0-0.2-1.3-1-2.4C8.5,4.2,9.7,1.8,9.7,1.8s0,0.5,0.1,1.1c0.1,0.7,0.2,1.5,1.1,2.4
		C12.9,7.4,12.1,10,12.1,10z"/>
</g>
</svg>
